<svg version="1.1" xmlns="http://www.w3.org/2000/svg" xmlns:xlink="http://www.w3.org/1999/xlink" width="309.31747" height="311.90663" viewBox="0,0,309.31747,311.90663"><g transform="translate(-84.52473,-24.03148)"><g stroke-miterlimit="10"><path d="M272.11192,174.50645l-66.99344,56.87247l-22.13384,-88.19874z" fill="#060606" stroke="none" stroke-width="0.5" stroke-linecap="round"/><path d="M271.84364,174.68179l38.60631,58.89432l-105.47075,-2.15076z" fill="#4a4758" stroke="none" stroke-width="0.5" stroke-linecap="round"/><path d="M182.99625,143.16857l95.74137,-35.68671l-6.72984,67.00296z" fill="#9698a5" stroke="none" stroke-width="0.5" stroke-linecap="round"/><path d="M278.70448,107.42016l47.96274,27.0139l-54.88924,40.44471z" fill="#eeedf2" stroke="none" stroke-width="0.5" stroke-linecap="round"/><path d="M326.53659,134.52258l-16.02996,99.0616l-38.59734,-58.95164z" fill="#c3c3cf" stroke="none" stroke-width="0.5" stroke-linecap="round"/><path d="M183.00974,143.03511l21.40417,-54.75792l74.1924,19.10618z" fill="#e7e6eb" stroke="none" stroke-width="0.5" stroke-linecap="round"/><path d="M204.36206,88.27369l-21.29616,54.84845l-51.79386,-0.284z" fill="#4a4f62" stroke="none" stroke-width="0.5" stroke-linecap="round"/><path d="M183.06589,143.12214l-41.98807,39.52769l-9.87145,-39.84452z" fill="#cccde9" stroke="none" stroke-width="0.5" stroke-linecap="round"/><path d="M182.99625,143.15696l22.33629,88.51049l-64.17779,-48.89563z" fill="#2b1544" stroke="none" stroke-width="0.5" stroke-linecap="round"/><path d="M131.16106,142.7043l9.96037,40.11483l0.857,49.20976z" fill="#d796db" stroke="none" stroke-width="0.5" stroke-linecap="round"/><path d="M141.13115,182.73555l63.9409,48.64337l-63.16325,0.51069z" fill="#8c4ab4" stroke="none" stroke-width="0.5" stroke-linecap="round"/><path d="M204.972,231.34377l13.49251,59.64937l-76.55605,-59.14053z" fill="#f8a3de" stroke="none" stroke-width="0.5" stroke-linecap="round"/><path d="M204.93277,231.23964l50.56228,36.4781l-37.16823,22.94782z" fill="#401f64" stroke="none" stroke-width="0.5" stroke-linecap="round"/><path d="M310.51561,233.44479l-2.09816,33.86824l-90.05142,23.68011z" fill="#9a77c9" stroke="none" stroke-width="0.5" stroke-linecap="round"/><path d="M310.33834,233.56677l-54.87612,34.11814l-50.44919,-36.35756z" fill="#2b1544" stroke="none" stroke-width="0.5" stroke-linecap="round"/><path d="M308.39423,267.31303l2.12138,-33.53996l37.62146,-31.18707z" fill="#b4b6c5" stroke="none" stroke-width="0.5" stroke-linecap="round"/><path d="M310.52985,233.65382l16.04035,-99.23665l21.58832,68.17731z" fill="#f3f3f5" stroke="none" stroke-width="0.5" stroke-linecap="round"/><path d="M348.29781,202.78019l-21.7619,-68.28048l4.39902,-17.07082z" fill="#e8e7ed" stroke="none" stroke-width="0.5" stroke-linecap="round"/><path d="M330.88569,117.49455l-4.36191,16.80656l-47.91215,-26.92738l-11.32806,-35.84126z" fill="#ffffff" stroke="none" stroke-width="0.5" stroke-linecap="round"/><path d="M204.32923,88.19959l63.00077,-16.59748l11.27632,35.81409z" fill="#f7f7f9" stroke="none" stroke-width="0.5" stroke-linecap="round"/><path d="M267.28048,71.56749l-62.90483,16.58567l-22.70256,-2.2749z" fill="#e0e1ea" stroke="none" stroke-width="0.5" stroke-linecap="round"/><path d="M131.27203,142.70683l50.55588,-56.9246l22.54774,2.41736z" fill-opacity="0" fill="#e0c7c7" stroke="none" stroke-width="0.5" stroke-linecap="round"/><path d="M370.68382,115.10448c0,0 6.50306,-1.20024 8.3284,-3.1317c1.93284,-2.04521 3.33175,-10.28645 3.33175,-10.28645c0,0 0.92004,7.91913 2.96445,10.00646c1.85787,1.89687 8.53378,3.36454 8.53378,3.36454c0,0 -6.55169,1.03145 -8.59398,3.01917c-2.01184,1.95808 -3.56977,8.81958 -3.56977,8.81958c0,0 -1.0833,-6.66285 -2.75517,-8.48929c-1.92282,-2.10059 -8.23946,-3.3023 -8.23946,-3.3023z" fill="#d4d4d4" stroke="none" stroke-width="0" stroke-linecap="round"/><path d="M108.57282,254.72314c0,0 -6.08538,1.08903 -8.00523,3.06264c-1.94859,2.00315 -3.3824,8.70472 -3.3824,8.70472c0,0 -0.85652,-6.41937 -2.74191,-8.49329c-1.82689,-2.00958 -8.4552,-3.54431 -8.4552,-3.54431c0,0 6.88386,-0.93663 8.88092,-2.92574c1.88025,-1.87276 3.15536,-8.62615 3.15536,-8.62615c0,0 0.91223,7.22447 2.94677,9.41224c1.49568,1.60833 7.60169,2.40989 7.60169,2.40989z" fill="#d4d4d4" stroke="none" stroke-width="0" stroke-linecap="round"/><path d="M241.52138,35.06783c2.60305,2.42493 9.24637,2.88327 9.24637,2.88327l-2.49331,1.48388c0,0 -5.05427,1.46612 -7.1841,3.68806c-2.12983,2.22194 -3.63736,10.25814 -3.63736,10.25814c0,0 -1.36617,-7.73346 -3.26431,-9.92189c-1.89814,-2.18843 -6.58425,-3.54878 -6.58425,-3.54878l-1.44163,-1.69678c0,0 5.42899,-0.9292 7.65982,-3.32728c2.23083,-2.39809 3.73002,-10.85497 3.73002,-10.85497c0,0 1.3657,8.61142 3.96875,11.03635z" fill="#d4d4d4" stroke="none" stroke-width="0" stroke-linecap="round"/><path d="M363.35307,177.98105c0,0 7.47002,-1.56098 10.01268,-2.93815c2.54266,-1.37717 3.79664,-7.61425 3.70963,-7.61621l2.1995,0.16413c-0.04361,0 0.96701,5.06341 3.77528,7.0253c2.80827,1.96188 10.06194,3.28285 10.06194,3.28285c0,0 -6.91988,1.1255 -9.63516,2.88891c-2.71528,1.76342 -4.62517,8.26001 -4.61241,8.27277l-1.42804,0.2298c0,0 -1.13326,-5.96179 -3.7917,-8.05939c-2.65843,-2.09761 -10.43459,-3.18652 -10.29173,-3.25001z" fill="#d4d4d4" stroke="none" stroke-width="0" stroke-linecap="round"/><path d="M241.05259,315.89837c2.04969,2.51592 7.55201,2.78048 7.59073,2.71594l-0.5339,2.34454c-0.11622,-0.0498 -5.95999,1.13464 -7.56752,3.71413c-1.60753,2.57949 -3.20343,9.9817 -3.20343,9.9817c0,0 -1.49458,-8.22799 -3.64449,-10.60845c-2.1499,-2.38047 -7.28896,-3.36593 -7.28896,-3.36593l0.3482,-2.20526c0,0 4.80289,-0.41305 6.92421,-2.62048c2.12132,-2.20744 3.73068,-10.28609 3.73068,-10.28609c0,0 1.5948,7.81398 3.64448,10.3299z" fill="#d4d4d4" stroke-width="0.5" stroke-linecap="round"/><path d="M84.52474,177.95502c0,0 7.30208,-1.38021 9.88769,-2.86123c2.58562,-1.48102 4.10465,-7.30727 4.04752,-7.53579l2.23233,0.31187c0,0 0.78467,4.95207 3.10035,6.84551c2.31569,1.89344 10.21383,3.31949 10.21383,3.31949c0,0 -8.47025,1.59389 -10.72452,3.78376c-2.25427,2.18988 -2.8088,8.07821 -2.8088,8.07821l-2.32133,-2.25169c0,0 -1.21955,-4.76221 -3.5052,-6.6622c-2.28565,-1.89999 -10.12188,-3.02793 -10.12188,-3.02793z" fill="#d4d4d4" stroke="none" stroke-width="0" stroke-linecap="round"/><path d="M330.98769,116.43032c31.59522,-6.26337 53.84752,-5.73911 58.26725,3.10956l0.00001,0.00001c9.82708,19.67467 -45.65274,62.93572 -129.42845,99.55982c-93.75517,40.9868 -161.69431,48.49714 -167.85958,33.54822c-6.14252,-14.89376 11.78578,-35.34117 45.21967,-57.07529" fill="none" stroke="#d4d4d4" stroke-width="2.5" stroke-linecap="butt"/><path d="M99.09294,179.46646c0,-77.71041 62.60303,-140.70715 139.82777,-140.70715c77.22474,0 139.82777,62.99674 139.82777,140.70716c0,77.71041 -62.60303,140.70715 -139.82777,140.70715c-77.22474,0 -139.82777,-62.99674 -139.82777,-140.70715z" fill="none" stroke="#d4d4d4" stroke-width="2.5" stroke-linecap="round"/><path d="M131.30158,142.64931l50.23266,-56.79353l22.96258,2.30389z" fill="#c7cce2" stroke="none" stroke-width="0" stroke-linecap="butt"/></g></g></svg>