<svg version="1.1" xmlns="http://www.w3.org/2000/svg" xmlns:xlink="http://www.w3.org/1999/xlink" width="24" height="24" viewBox="0,0,24,24"><g transform="translate(-228,-168)"><g stroke-miterlimit="5"><path d="M228,180c0,-6.62742 5.37258,-12 12,-12c6.62742,0 12,5.37258 12,12c0,6.62742 -5.37258,12 -12,12c-6.62742,0 -12,-5.37258 -12,-12z" fill="#b3b3b3" stroke="none" stroke-width="1.3799" stroke-linecap="square"/><path d="M232.56742,180.56836v-1.03788l5.27562,-2.53292v1.10584l-4.18356,1.9522l4.18356,1.97074v1.10584zM238.45699,184.68281l2.30909,-9.36563h0.78238l-2.30367,9.36563zM247.43258,180.56836l-5.27563,2.56381v-1.10584l4.17812,-1.97074l-4.17812,-1.9522v-1.10584l5.27563,2.53292z" fill="#ffffff" stroke="#ffffff" stroke-width="0.5" stroke-linecap="round"/></g></g></svg>